<?xml version="1.0" encoding="UTF-8"?>
<svg id="Layer_1" data-name="Layer 1" xmlns="http://www.w3.org/2000/svg" xmlns:xlink="http://www.w3.org/1999/xlink" viewBox="0 0 20 20">
  <defs>
    <style>
      .cls-1 {
        fill: url(#linear-gradient);
      }
    </style>
    <linearGradient id="linear-gradient" x1="0" y1="10" x2="20" y2="10" gradientUnits="userSpaceOnUse">
      <stop offset=".29" stop-color="#f48120"/>
      <stop offset=".66" stop-color="#f7b452"/>
      <stop offset="1" stop-color="#ffe820"/>
    </linearGradient>
  </defs>
  <path class="cls-1" d="M10,0C4.5,0,.05,4.43,0,9.92l5.74-.13c2.31-.03,4.92-1.27,6.61-3.34.7-.86,1.3-1.87,1.79-3h.14c-.96,4.04.56,6.4,4.42,6.84v.16c-4.11.42-7.22,2.71-9.01,6.66h-.18c.23-1.05.31-2,.19-2.81-.29-2.08-2.06-3.31-4.35-3.34l-5.31-.04c.45,5.1,4.74,9.1,9.96,9.1,5.52,0,10-4.48,10-10S15.52,0,10,0Z"/>
</svg>